<?xml version="1.0" encoding="utf-8"?>
<!-- Generator: Adobe Illustrator 22.0.1, SVG Export Plug-In . SVG Version: 6.00 Build 0)  -->
<svg version="1.1" id="Слой_1" xmlns="http://www.w3.org/2000/svg" xmlns:xlink="http://www.w3.org/1999/xlink" x="0px" y="0px"
	 viewBox="0 0 166 163" style="enable-background:new 0 0 166 163;" xml:space="preserve">
<style type="text/css">
	.st0{fill:#0023FF;}
</style>
<g>
	<path class="st0" d="M163,75c0,4,0,8,0,12c-0.4,1.1-0.9,2.1-1.1,3.2c-4.3,32.6-27.6,58.5-59.3,66.2c-4.2,1-8.4,1.7-12.6,2.6
		c-4,0-8,0-12,0c-1.3-0.4-2.5-0.9-3.8-1.1c-33.6-4.1-60.4-28.8-67.2-61.8C6.4,93.1,5.7,90,5,87c0-4.3,0-8.7,0-13
		c0.4-1.1,0.9-2.1,1.1-3.2c4.3-32.3,26.8-57.7,58.4-65.9c4.5-1.1,9-2,13.5-2.9c4,0,8,0,12,0c1.3,0.4,2.5,0.9,3.8,1.1
		c33.5,4.1,60.3,28.7,67.2,61.8C161.6,68.2,162.3,71.6,163,75z M46.5,80.2c-0.3,20.6,16.3,37.6,37.1,37.9
		c20.5,0.3,37.6-16.5,37.8-37.2c0.2-20.7-16.4-37.6-37.1-37.9C63.8,42.7,46.8,59.4,46.5,80.2z"/>
	<path class="st0" d="M149.7,156.7c-3.6,0.1-7.1-3.2-7.3-6.8c-0.2-3.8,3.4-7.5,7.2-7.5c3.6,0,7.1,3.5,7.1,7.1
		C156.7,153,153.3,156.5,149.7,156.7z"/>
</g>
</svg>
